<mxfile host="app.diagrams.net" modified="2023-11-16T14:52:28.951Z" agent="Mozilla/5.0 (X11; Linux x86_64) AppleWebKit/537.36 (KHTML, like Gecko) Chrome/119.0.0.0 Safari/537.36" etag="N7M4tiqOz673DUGy2YJZ" version="22.1.2" type="device">
  <diagram id="C5RBs43oDa-KdzZeNtuy" name="Page-1">
    <mxGraphModel dx="1624" dy="871" grid="1" gridSize="10" guides="1" tooltips="1" connect="1" arrows="1" fold="1" page="1" pageScale="1" pageWidth="827" pageHeight="1169" math="0" shadow="0">
      <root>
        <mxCell id="WIyWlLk6GJQsqaUBKTNV-0" />
        <mxCell id="WIyWlLk6GJQsqaUBKTNV-1" parent="WIyWlLk6GJQsqaUBKTNV-0" />
        <mxCell id="WIyWlLk6GJQsqaUBKTNV-2" value="" style="rounded=0;html=1;jettySize=auto;orthogonalLoop=1;fontSize=11;endArrow=block;endFill=0;endSize=8;strokeWidth=1;shadow=0;labelBackgroundColor=none;edgeStyle=orthogonalEdgeStyle;" parent="WIyWlLk6GJQsqaUBKTNV-1" source="WIyWlLk6GJQsqaUBKTNV-3" target="WIyWlLk6GJQsqaUBKTNV-6" edge="1">
          <mxGeometry relative="1" as="geometry" />
        </mxCell>
        <mxCell id="WIyWlLk6GJQsqaUBKTNV-3" value="Štart" style="rounded=1;whiteSpace=wrap;html=1;fontSize=12;glass=0;strokeWidth=1;shadow=0;" parent="WIyWlLk6GJQsqaUBKTNV-1" vertex="1">
          <mxGeometry x="160" y="80" width="120" height="40" as="geometry" />
        </mxCell>
        <mxCell id="ls-VXuDLjJir9B-_iSUq-0" style="edgeStyle=orthogonalEdgeStyle;rounded=0;orthogonalLoop=1;jettySize=auto;html=1;" edge="1" parent="WIyWlLk6GJQsqaUBKTNV-1" source="WIyWlLk6GJQsqaUBKTNV-6" target="ls-VXuDLjJir9B-_iSUq-1">
          <mxGeometry relative="1" as="geometry">
            <mxPoint x="90" y="210" as="targetPoint" />
          </mxGeometry>
        </mxCell>
        <mxCell id="ls-VXuDLjJir9B-_iSUq-4" value="" style="edgeStyle=orthogonalEdgeStyle;rounded=0;orthogonalLoop=1;jettySize=auto;html=1;" edge="1" parent="WIyWlLk6GJQsqaUBKTNV-1" source="WIyWlLk6GJQsqaUBKTNV-6" target="ls-VXuDLjJir9B-_iSUq-3">
          <mxGeometry relative="1" as="geometry" />
        </mxCell>
        <mxCell id="ls-VXuDLjJir9B-_iSUq-5" value="Klient" style="edgeLabel;html=1;align=center;verticalAlign=middle;resizable=0;points=[];" vertex="1" connectable="0" parent="ls-VXuDLjJir9B-_iSUq-4">
          <mxGeometry x="-0.0571" y="1" relative="1" as="geometry">
            <mxPoint x="-3" y="-6" as="offset" />
          </mxGeometry>
        </mxCell>
        <mxCell id="WIyWlLk6GJQsqaUBKTNV-6" value="Server/Klient" style="rhombus;whiteSpace=wrap;html=1;shadow=0;fontFamily=Helvetica;fontSize=12;align=center;strokeWidth=1;spacing=6;spacingTop=-4;" parent="WIyWlLk6GJQsqaUBKTNV-1" vertex="1">
          <mxGeometry x="170" y="170" width="100" height="80" as="geometry" />
        </mxCell>
        <mxCell id="ls-VXuDLjJir9B-_iSUq-7" style="edgeStyle=orthogonalEdgeStyle;rounded=0;orthogonalLoop=1;jettySize=auto;html=1;exitX=0.5;exitY=1;exitDx=0;exitDy=0;" edge="1" parent="WIyWlLk6GJQsqaUBKTNV-1" source="ls-VXuDLjJir9B-_iSUq-1" target="ls-VXuDLjJir9B-_iSUq-8">
          <mxGeometry relative="1" as="geometry">
            <mxPoint x="10" y="300" as="targetPoint" />
          </mxGeometry>
        </mxCell>
        <mxCell id="ls-VXuDLjJir9B-_iSUq-1" value="Nastavenie portu na počúvanie" style="rounded=0;whiteSpace=wrap;html=1;" vertex="1" parent="WIyWlLk6GJQsqaUBKTNV-1">
          <mxGeometry x="-50" y="180" width="120" height="60" as="geometry" />
        </mxCell>
        <mxCell id="ls-VXuDLjJir9B-_iSUq-2" value="Server" style="text;html=1;align=center;verticalAlign=middle;resizable=0;points=[];autosize=1;strokeColor=none;fillColor=none;" vertex="1" parent="WIyWlLk6GJQsqaUBKTNV-1">
          <mxGeometry x="100" y="188" width="60" height="30" as="geometry" />
        </mxCell>
        <mxCell id="ls-VXuDLjJir9B-_iSUq-45" value="" style="edgeStyle=orthogonalEdgeStyle;rounded=0;orthogonalLoop=1;jettySize=auto;html=1;" edge="1" parent="WIyWlLk6GJQsqaUBKTNV-1" source="ls-VXuDLjJir9B-_iSUq-3" target="ls-VXuDLjJir9B-_iSUq-44">
          <mxGeometry relative="1" as="geometry" />
        </mxCell>
        <mxCell id="ls-VXuDLjJir9B-_iSUq-3" value="Nastavenie IP a portu servera,&amp;nbsp;&lt;br&gt;velkosť fragmentu" style="whiteSpace=wrap;html=1;shadow=0;strokeWidth=1;spacing=6;spacingTop=-4;" vertex="1" parent="WIyWlLk6GJQsqaUBKTNV-1">
          <mxGeometry x="354" y="180" width="120" height="60" as="geometry" />
        </mxCell>
        <mxCell id="ls-VXuDLjJir9B-_iSUq-9" style="edgeStyle=orthogonalEdgeStyle;rounded=0;orthogonalLoop=1;jettySize=auto;html=1;exitX=0;exitY=0.5;exitDx=0;exitDy=0;" edge="1" parent="WIyWlLk6GJQsqaUBKTNV-1" source="ls-VXuDLjJir9B-_iSUq-8">
          <mxGeometry relative="1" as="geometry">
            <mxPoint x="10" y="280" as="targetPoint" />
          </mxGeometry>
        </mxCell>
        <mxCell id="ls-VXuDLjJir9B-_iSUq-10" value="Nie" style="edgeLabel;html=1;align=center;verticalAlign=middle;resizable=0;points=[];" vertex="1" connectable="0" parent="ls-VXuDLjJir9B-_iSUq-9">
          <mxGeometry x="-0.6854" y="3" relative="1" as="geometry">
            <mxPoint as="offset" />
          </mxGeometry>
        </mxCell>
        <mxCell id="ls-VXuDLjJir9B-_iSUq-11" style="edgeStyle=orthogonalEdgeStyle;rounded=0;orthogonalLoop=1;jettySize=auto;html=1;exitX=0.5;exitY=1;exitDx=0;exitDy=0;" edge="1" parent="WIyWlLk6GJQsqaUBKTNV-1" source="ls-VXuDLjJir9B-_iSUq-8" target="ls-VXuDLjJir9B-_iSUq-12">
          <mxGeometry relative="1" as="geometry">
            <mxPoint x="10" y="430" as="targetPoint" />
          </mxGeometry>
        </mxCell>
        <mxCell id="ls-VXuDLjJir9B-_iSUq-8" value="Prišiel inicializačný packet" style="rhombus;whiteSpace=wrap;html=1;" vertex="1" parent="WIyWlLk6GJQsqaUBKTNV-1">
          <mxGeometry x="-30" y="290" width="80" height="80" as="geometry" />
        </mxCell>
        <mxCell id="ls-VXuDLjJir9B-_iSUq-13" style="edgeStyle=orthogonalEdgeStyle;rounded=0;orthogonalLoop=1;jettySize=auto;html=1;exitX=0.5;exitY=1;exitDx=0;exitDy=0;" edge="1" parent="WIyWlLk6GJQsqaUBKTNV-1" source="ls-VXuDLjJir9B-_iSUq-12" target="ls-VXuDLjJir9B-_iSUq-14">
          <mxGeometry relative="1" as="geometry">
            <mxPoint x="10" y="520" as="targetPoint" />
          </mxGeometry>
        </mxCell>
        <mxCell id="ls-VXuDLjJir9B-_iSUq-12" value="Nastavenie parametrov" style="rounded=0;whiteSpace=wrap;html=1;" vertex="1" parent="WIyWlLk6GJQsqaUBKTNV-1">
          <mxGeometry x="-50" y="400" width="120" height="60" as="geometry" />
        </mxCell>
        <mxCell id="ls-VXuDLjJir9B-_iSUq-15" style="edgeStyle=orthogonalEdgeStyle;rounded=0;orthogonalLoop=1;jettySize=auto;html=1;exitX=0.5;exitY=1;exitDx=0;exitDy=0;" edge="1" parent="WIyWlLk6GJQsqaUBKTNV-1" source="ls-VXuDLjJir9B-_iSUq-14" target="ls-VXuDLjJir9B-_iSUq-16">
          <mxGeometry relative="1" as="geometry">
            <mxPoint x="10" y="600" as="targetPoint" />
          </mxGeometry>
        </mxCell>
        <mxCell id="ls-VXuDLjJir9B-_iSUq-14" value="Odoslanie ACK" style="rounded=0;whiteSpace=wrap;html=1;" vertex="1" parent="WIyWlLk6GJQsqaUBKTNV-1">
          <mxGeometry x="-50" y="490" width="120" height="60" as="geometry" />
        </mxCell>
        <mxCell id="ls-VXuDLjJir9B-_iSUq-20" value="" style="edgeStyle=orthogonalEdgeStyle;rounded=0;orthogonalLoop=1;jettySize=auto;html=1;" edge="1" parent="WIyWlLk6GJQsqaUBKTNV-1" source="ls-VXuDLjJir9B-_iSUq-16" target="ls-VXuDLjJir9B-_iSUq-19">
          <mxGeometry relative="1" as="geometry" />
        </mxCell>
        <mxCell id="ls-VXuDLjJir9B-_iSUq-16" value="Prijatie Packetu" style="rounded=0;whiteSpace=wrap;html=1;" vertex="1" parent="WIyWlLk6GJQsqaUBKTNV-1">
          <mxGeometry x="-50" y="584.5" width="120" height="60" as="geometry" />
        </mxCell>
        <mxCell id="ls-VXuDLjJir9B-_iSUq-22" style="edgeStyle=orthogonalEdgeStyle;rounded=0;orthogonalLoop=1;jettySize=auto;html=1;exitX=0.5;exitY=1;exitDx=0;exitDy=0;entryX=0.5;entryY=0;entryDx=0;entryDy=0;" edge="1" parent="WIyWlLk6GJQsqaUBKTNV-1" source="ls-VXuDLjJir9B-_iSUq-19" target="ls-VXuDLjJir9B-_iSUq-28">
          <mxGeometry relative="1" as="geometry">
            <mxPoint x="9" y="820" as="targetPoint" />
            <Array as="points">
              <mxPoint x="9" y="795" />
              <mxPoint x="10" y="795" />
            </Array>
          </mxGeometry>
        </mxCell>
        <mxCell id="ls-VXuDLjJir9B-_iSUq-23" value="Nie" style="edgeLabel;html=1;align=center;verticalAlign=middle;resizable=0;points=[];" vertex="1" connectable="0" parent="ls-VXuDLjJir9B-_iSUq-22">
          <mxGeometry x="0.0902" y="-1" relative="1" as="geometry">
            <mxPoint as="offset" />
          </mxGeometry>
        </mxCell>
        <mxCell id="ls-VXuDLjJir9B-_iSUq-24" style="edgeStyle=orthogonalEdgeStyle;rounded=0;orthogonalLoop=1;jettySize=auto;html=1;exitX=0;exitY=0.5;exitDx=0;exitDy=0;" edge="1" parent="WIyWlLk6GJQsqaUBKTNV-1" source="ls-VXuDLjJir9B-_iSUq-19" target="ls-VXuDLjJir9B-_iSUq-25">
          <mxGeometry relative="1" as="geometry">
            <mxPoint x="-100" y="725" as="targetPoint" />
          </mxGeometry>
        </mxCell>
        <mxCell id="ls-VXuDLjJir9B-_iSUq-27" value="áno" style="edgeLabel;html=1;align=center;verticalAlign=middle;resizable=0;points=[];" vertex="1" connectable="0" parent="ls-VXuDLjJir9B-_iSUq-24">
          <mxGeometry x="-0.1818" y="2" relative="1" as="geometry">
            <mxPoint as="offset" />
          </mxGeometry>
        </mxCell>
        <mxCell id="ls-VXuDLjJir9B-_iSUq-19" value="Poškodený?" style="rhombus;whiteSpace=wrap;html=1;rounded=0;" vertex="1" parent="WIyWlLk6GJQsqaUBKTNV-1">
          <mxGeometry x="-36" y="680" width="90" height="90" as="geometry" />
        </mxCell>
        <mxCell id="ls-VXuDLjJir9B-_iSUq-26" style="edgeStyle=orthogonalEdgeStyle;rounded=0;orthogonalLoop=1;jettySize=auto;html=1;exitX=0.5;exitY=0;exitDx=0;exitDy=0;entryX=0;entryY=0.5;entryDx=0;entryDy=0;" edge="1" parent="WIyWlLk6GJQsqaUBKTNV-1" source="ls-VXuDLjJir9B-_iSUq-25" target="ls-VXuDLjJir9B-_iSUq-16">
          <mxGeometry relative="1" as="geometry" />
        </mxCell>
        <mxCell id="ls-VXuDLjJir9B-_iSUq-25" value="Požiadavka o opätovné poslanie" style="rounded=0;whiteSpace=wrap;html=1;" vertex="1" parent="WIyWlLk6GJQsqaUBKTNV-1">
          <mxGeometry x="-200" y="695" width="120" height="60" as="geometry" />
        </mxCell>
        <mxCell id="ls-VXuDLjJir9B-_iSUq-29" style="edgeStyle=orthogonalEdgeStyle;rounded=0;orthogonalLoop=1;jettySize=auto;html=1;exitX=0.5;exitY=1;exitDx=0;exitDy=0;" edge="1" parent="WIyWlLk6GJQsqaUBKTNV-1" source="ls-VXuDLjJir9B-_iSUq-28" target="ls-VXuDLjJir9B-_iSUq-30">
          <mxGeometry relative="1" as="geometry">
            <mxPoint x="9" y="940" as="targetPoint" />
          </mxGeometry>
        </mxCell>
        <mxCell id="ls-VXuDLjJir9B-_iSUq-28" value="ACK,&lt;br&gt;a spracovanie správy" style="rounded=0;whiteSpace=wrap;html=1;" vertex="1" parent="WIyWlLk6GJQsqaUBKTNV-1">
          <mxGeometry x="-51" y="810" width="120" height="60" as="geometry" />
        </mxCell>
        <mxCell id="ls-VXuDLjJir9B-_iSUq-39" style="edgeStyle=orthogonalEdgeStyle;rounded=0;orthogonalLoop=1;jettySize=auto;html=1;exitX=0.5;exitY=1;exitDx=0;exitDy=0;" edge="1" parent="WIyWlLk6GJQsqaUBKTNV-1" source="ls-VXuDLjJir9B-_iSUq-30" target="ls-VXuDLjJir9B-_iSUq-40">
          <mxGeometry relative="1" as="geometry">
            <mxPoint x="9" y="1040" as="targetPoint" />
          </mxGeometry>
        </mxCell>
        <mxCell id="ls-VXuDLjJir9B-_iSUq-41" value="áno" style="edgeLabel;html=1;align=center;verticalAlign=middle;resizable=0;points=[];" vertex="1" connectable="0" parent="ls-VXuDLjJir9B-_iSUq-39">
          <mxGeometry y="5" relative="1" as="geometry">
            <mxPoint as="offset" />
          </mxGeometry>
        </mxCell>
        <mxCell id="ls-VXuDLjJir9B-_iSUq-30" value="Posledný packet?" style="rhombus;whiteSpace=wrap;html=1;" vertex="1" parent="WIyWlLk6GJQsqaUBKTNV-1">
          <mxGeometry x="-31" y="910" width="80" height="80" as="geometry" />
        </mxCell>
        <mxCell id="ls-VXuDLjJir9B-_iSUq-33" value="" style="endArrow=none;html=1;rounded=0;entryX=0;entryY=0.5;entryDx=0;entryDy=0;" edge="1" parent="WIyWlLk6GJQsqaUBKTNV-1" target="ls-VXuDLjJir9B-_iSUq-30">
          <mxGeometry width="50" height="50" relative="1" as="geometry">
            <mxPoint x="-230" y="950" as="sourcePoint" />
            <mxPoint x="-31" y="949.5" as="targetPoint" />
          </mxGeometry>
        </mxCell>
        <mxCell id="ls-VXuDLjJir9B-_iSUq-38" value="nie" style="edgeLabel;html=1;align=center;verticalAlign=middle;resizable=0;points=[];" vertex="1" connectable="0" parent="ls-VXuDLjJir9B-_iSUq-33">
          <mxGeometry x="0.3568" relative="1" as="geometry">
            <mxPoint as="offset" />
          </mxGeometry>
        </mxCell>
        <mxCell id="ls-VXuDLjJir9B-_iSUq-34" value="" style="endArrow=none;html=1;rounded=0;" edge="1" parent="WIyWlLk6GJQsqaUBKTNV-1">
          <mxGeometry width="50" height="50" relative="1" as="geometry">
            <mxPoint x="-230" y="950" as="sourcePoint" />
            <mxPoint x="-230" y="610" as="targetPoint" />
          </mxGeometry>
        </mxCell>
        <mxCell id="ls-VXuDLjJir9B-_iSUq-37" value="" style="endArrow=classic;html=1;rounded=0;entryX=0;entryY=0.5;entryDx=0;entryDy=0;" edge="1" parent="WIyWlLk6GJQsqaUBKTNV-1">
          <mxGeometry width="50" height="50" relative="1" as="geometry">
            <mxPoint x="-230" y="610" as="sourcePoint" />
            <mxPoint x="-51" y="614.5" as="targetPoint" />
          </mxGeometry>
        </mxCell>
        <mxCell id="ls-VXuDLjJir9B-_iSUq-66" style="edgeStyle=orthogonalEdgeStyle;rounded=0;orthogonalLoop=1;jettySize=auto;html=1;exitX=1;exitY=0.5;exitDx=0;exitDy=0;entryX=1;entryY=0.5;entryDx=0;entryDy=0;" edge="1" parent="WIyWlLk6GJQsqaUBKTNV-1" source="ls-VXuDLjJir9B-_iSUq-40" target="ls-VXuDLjJir9B-_iSUq-8">
          <mxGeometry relative="1" as="geometry" />
        </mxCell>
        <mxCell id="ls-VXuDLjJir9B-_iSUq-40" value="Výpis správy alebo cesty k súboru" style="rounded=0;whiteSpace=wrap;html=1;" vertex="1" parent="WIyWlLk6GJQsqaUBKTNV-1">
          <mxGeometry x="-51" y="1040" width="120" height="60" as="geometry" />
        </mxCell>
        <mxCell id="ls-VXuDLjJir9B-_iSUq-48" value="" style="edgeStyle=orthogonalEdgeStyle;rounded=0;orthogonalLoop=1;jettySize=auto;html=1;" edge="1" parent="WIyWlLk6GJQsqaUBKTNV-1" source="ls-VXuDLjJir9B-_iSUq-44" target="ls-VXuDLjJir9B-_iSUq-47">
          <mxGeometry relative="1" as="geometry" />
        </mxCell>
        <mxCell id="ls-VXuDLjJir9B-_iSUq-49" value="áno" style="edgeLabel;html=1;align=center;verticalAlign=middle;resizable=0;points=[];" vertex="1" connectable="0" parent="ls-VXuDLjJir9B-_iSUq-48">
          <mxGeometry x="-0.2277" y="4" relative="1" as="geometry">
            <mxPoint as="offset" />
          </mxGeometry>
        </mxCell>
        <mxCell id="ls-VXuDLjJir9B-_iSUq-56" style="edgeStyle=orthogonalEdgeStyle;rounded=0;orthogonalLoop=1;jettySize=auto;html=1;exitX=0;exitY=0.5;exitDx=0;exitDy=0;entryX=1;entryY=0.5;entryDx=0;entryDy=0;" edge="1" parent="WIyWlLk6GJQsqaUBKTNV-1" source="ls-VXuDLjJir9B-_iSUq-44" target="ls-VXuDLjJir9B-_iSUq-55">
          <mxGeometry relative="1" as="geometry" />
        </mxCell>
        <mxCell id="ls-VXuDLjJir9B-_iSUq-57" value="Nie" style="edgeLabel;html=1;align=center;verticalAlign=middle;resizable=0;points=[];" vertex="1" connectable="0" parent="ls-VXuDLjJir9B-_iSUq-56">
          <mxGeometry x="-0.2955" relative="1" as="geometry">
            <mxPoint as="offset" />
          </mxGeometry>
        </mxCell>
        <mxCell id="ls-VXuDLjJir9B-_iSUq-44" value="Odoslať správu/súbor?" style="rhombus;whiteSpace=wrap;html=1;shadow=0;strokeWidth=1;spacing=6;spacingTop=-4;" vertex="1" parent="WIyWlLk6GJQsqaUBKTNV-1">
          <mxGeometry x="361" y="290" width="106" height="110" as="geometry" />
        </mxCell>
        <mxCell id="ls-VXuDLjJir9B-_iSUq-67" style="edgeStyle=orthogonalEdgeStyle;rounded=0;orthogonalLoop=1;jettySize=auto;html=1;exitX=0.5;exitY=1;exitDx=0;exitDy=0;" edge="1" parent="WIyWlLk6GJQsqaUBKTNV-1" source="ls-VXuDLjJir9B-_iSUq-47" target="ls-VXuDLjJir9B-_iSUq-68">
          <mxGeometry relative="1" as="geometry">
            <mxPoint x="413.66666666666674" y="580" as="targetPoint" />
          </mxGeometry>
        </mxCell>
        <mxCell id="ls-VXuDLjJir9B-_iSUq-47" value="Nadviazanie spojenia, Inicializácia" style="whiteSpace=wrap;html=1;shadow=0;strokeWidth=1;spacing=6;spacingTop=-4;" vertex="1" parent="WIyWlLk6GJQsqaUBKTNV-1">
          <mxGeometry x="354" y="470" width="120" height="60" as="geometry" />
        </mxCell>
        <mxCell id="ls-VXuDLjJir9B-_iSUq-58" style="edgeStyle=orthogonalEdgeStyle;rounded=0;orthogonalLoop=1;jettySize=auto;html=1;exitX=0.5;exitY=0;exitDx=0;exitDy=0;entryX=0.5;entryY=1;entryDx=0;entryDy=0;" edge="1" parent="WIyWlLk6GJQsqaUBKTNV-1" source="ls-VXuDLjJir9B-_iSUq-55" target="WIyWlLk6GJQsqaUBKTNV-6">
          <mxGeometry relative="1" as="geometry" />
        </mxCell>
        <mxCell id="ls-VXuDLjJir9B-_iSUq-59" value="áno" style="edgeLabel;html=1;align=center;verticalAlign=middle;resizable=0;points=[];" vertex="1" connectable="0" parent="ls-VXuDLjJir9B-_iSUq-58">
          <mxGeometry x="-0.0156" y="-2" relative="1" as="geometry">
            <mxPoint as="offset" />
          </mxGeometry>
        </mxCell>
        <mxCell id="ls-VXuDLjJir9B-_iSUq-60" style="edgeStyle=orthogonalEdgeStyle;rounded=0;orthogonalLoop=1;jettySize=auto;html=1;exitX=0.5;exitY=1;exitDx=0;exitDy=0;entryX=0.5;entryY=0;entryDx=0;entryDy=0;" edge="1" parent="WIyWlLk6GJQsqaUBKTNV-1" source="ls-VXuDLjJir9B-_iSUq-55" target="ls-VXuDLjJir9B-_iSUq-62">
          <mxGeometry relative="1" as="geometry">
            <mxPoint x="220" y="470" as="targetPoint" />
          </mxGeometry>
        </mxCell>
        <mxCell id="ls-VXuDLjJir9B-_iSUq-61" value="nie" style="edgeLabel;html=1;align=center;verticalAlign=middle;resizable=0;points=[];" vertex="1" connectable="0" parent="ls-VXuDLjJir9B-_iSUq-60">
          <mxGeometry x="-0.4282" y="3" relative="1" as="geometry">
            <mxPoint as="offset" />
          </mxGeometry>
        </mxCell>
        <mxCell id="ls-VXuDLjJir9B-_iSUq-55" value="Zmeniť rolu?" style="rhombus;whiteSpace=wrap;html=1;" vertex="1" parent="WIyWlLk6GJQsqaUBKTNV-1">
          <mxGeometry x="170" y="293.75" width="100" height="102.5" as="geometry" />
        </mxCell>
        <mxCell id="ls-VXuDLjJir9B-_iSUq-63" style="edgeStyle=orthogonalEdgeStyle;rounded=0;orthogonalLoop=1;jettySize=auto;html=1;exitX=1;exitY=0.5;exitDx=0;exitDy=0;entryX=0;entryY=1;entryDx=0;entryDy=0;" edge="1" parent="WIyWlLk6GJQsqaUBKTNV-1" source="ls-VXuDLjJir9B-_iSUq-62" target="ls-VXuDLjJir9B-_iSUq-44">
          <mxGeometry relative="1" as="geometry">
            <Array as="points">
              <mxPoint x="310" y="510" />
              <mxPoint x="310" y="420" />
              <mxPoint x="388" y="420" />
            </Array>
          </mxGeometry>
        </mxCell>
        <mxCell id="ls-VXuDLjJir9B-_iSUq-64" style="edgeStyle=orthogonalEdgeStyle;rounded=0;orthogonalLoop=1;jettySize=auto;html=1;exitX=0.5;exitY=1;exitDx=0;exitDy=0;" edge="1" parent="WIyWlLk6GJQsqaUBKTNV-1" source="ls-VXuDLjJir9B-_iSUq-62" target="ls-VXuDLjJir9B-_iSUq-65">
          <mxGeometry relative="1" as="geometry">
            <mxPoint x="220.33333333333348" y="620" as="targetPoint" />
          </mxGeometry>
        </mxCell>
        <mxCell id="ls-VXuDLjJir9B-_iSUq-62" value="začatie timeoutu" style="rounded=0;whiteSpace=wrap;html=1;" vertex="1" parent="WIyWlLk6GJQsqaUBKTNV-1">
          <mxGeometry x="160" y="480" width="120" height="60" as="geometry" />
        </mxCell>
        <mxCell id="ls-VXuDLjJir9B-_iSUq-65" value="Koniec" style="ellipse;whiteSpace=wrap;html=1;" vertex="1" parent="WIyWlLk6GJQsqaUBKTNV-1">
          <mxGeometry x="160.00333333333347" y="600" width="120" height="80" as="geometry" />
        </mxCell>
        <mxCell id="ls-VXuDLjJir9B-_iSUq-69" style="edgeStyle=orthogonalEdgeStyle;rounded=0;orthogonalLoop=1;jettySize=auto;html=1;exitX=1;exitY=0.5;exitDx=0;exitDy=0;" edge="1" parent="WIyWlLk6GJQsqaUBKTNV-1" source="ls-VXuDLjJir9B-_iSUq-68" target="ls-VXuDLjJir9B-_iSUq-70">
          <mxGeometry relative="1" as="geometry">
            <mxPoint x="520" y="614.3333333333335" as="targetPoint" />
          </mxGeometry>
        </mxCell>
        <mxCell id="ls-VXuDLjJir9B-_iSUq-72" value="nie" style="edgeLabel;html=1;align=center;verticalAlign=middle;resizable=0;points=[];" vertex="1" connectable="0" parent="ls-VXuDLjJir9B-_iSUq-69">
          <mxGeometry x="-0.1037" y="2" relative="1" as="geometry">
            <mxPoint as="offset" />
          </mxGeometry>
        </mxCell>
        <mxCell id="ls-VXuDLjJir9B-_iSUq-74" style="edgeStyle=orthogonalEdgeStyle;rounded=0;orthogonalLoop=1;jettySize=auto;html=1;exitX=0.5;exitY=1;exitDx=0;exitDy=0;entryX=0.5;entryY=0;entryDx=0;entryDy=0;" edge="1" parent="WIyWlLk6GJQsqaUBKTNV-1" source="ls-VXuDLjJir9B-_iSUq-68" target="ls-VXuDLjJir9B-_iSUq-76">
          <mxGeometry relative="1" as="geometry">
            <mxPoint x="413.66666666666674" y="680" as="targetPoint" />
          </mxGeometry>
        </mxCell>
        <mxCell id="ls-VXuDLjJir9B-_iSUq-79" value="áno" style="edgeLabel;html=1;align=center;verticalAlign=middle;resizable=0;points=[];" vertex="1" connectable="0" parent="ls-VXuDLjJir9B-_iSUq-74">
          <mxGeometry x="-0.0122" y="-3" relative="1" as="geometry">
            <mxPoint x="-2" y="-3" as="offset" />
          </mxGeometry>
        </mxCell>
        <mxCell id="ls-VXuDLjJir9B-_iSUq-68" value="Ack?" style="rhombus;whiteSpace=wrap;html=1;" vertex="1" parent="WIyWlLk6GJQsqaUBKTNV-1">
          <mxGeometry x="373.9966666666667" y="574.5" width="80" height="80" as="geometry" />
        </mxCell>
        <mxCell id="ls-VXuDLjJir9B-_iSUq-73" style="edgeStyle=orthogonalEdgeStyle;rounded=0;orthogonalLoop=1;jettySize=auto;html=1;exitX=0.5;exitY=0;exitDx=0;exitDy=0;entryX=1;entryY=0.5;entryDx=0;entryDy=0;" edge="1" parent="WIyWlLk6GJQsqaUBKTNV-1" source="ls-VXuDLjJir9B-_iSUq-70" target="ls-VXuDLjJir9B-_iSUq-44">
          <mxGeometry relative="1" as="geometry" />
        </mxCell>
        <mxCell id="ls-VXuDLjJir9B-_iSUq-70" value="Chyba serveru" style="shape=parallelogram;perimeter=parallelogramPerimeter;whiteSpace=wrap;html=1;fixedSize=1;" vertex="1" parent="WIyWlLk6GJQsqaUBKTNV-1">
          <mxGeometry x="510" y="584.5033333333334" width="120" height="60" as="geometry" />
        </mxCell>
        <mxCell id="ls-VXuDLjJir9B-_iSUq-77" style="edgeStyle=orthogonalEdgeStyle;rounded=0;orthogonalLoop=1;jettySize=auto;html=1;exitX=0.5;exitY=1;exitDx=0;exitDy=0;" edge="1" parent="WIyWlLk6GJQsqaUBKTNV-1" source="ls-VXuDLjJir9B-_iSUq-76" target="ls-VXuDLjJir9B-_iSUq-78">
          <mxGeometry relative="1" as="geometry">
            <mxPoint x="414.5" y="860" as="targetPoint" />
          </mxGeometry>
        </mxCell>
        <mxCell id="ls-VXuDLjJir9B-_iSUq-80" value="nie" style="edgeLabel;html=1;align=center;verticalAlign=middle;resizable=0;points=[];" vertex="1" connectable="0" parent="ls-VXuDLjJir9B-_iSUq-77">
          <mxGeometry x="0.0701" y="2" relative="1" as="geometry">
            <mxPoint as="offset" />
          </mxGeometry>
        </mxCell>
        <mxCell id="ls-VXuDLjJir9B-_iSUq-81" style="edgeStyle=orthogonalEdgeStyle;rounded=0;orthogonalLoop=1;jettySize=auto;html=1;exitX=1;exitY=0.5;exitDx=0;exitDy=0;" edge="1" parent="WIyWlLk6GJQsqaUBKTNV-1" source="ls-VXuDLjJir9B-_iSUq-76" target="ls-VXuDLjJir9B-_iSUq-82">
          <mxGeometry relative="1" as="geometry">
            <mxPoint x="520" y="747.6666666666667" as="targetPoint" />
          </mxGeometry>
        </mxCell>
        <mxCell id="ls-VXuDLjJir9B-_iSUq-76" value="Potreba fragmmentácie ?" style="rhombus;whiteSpace=wrap;html=1;" vertex="1" parent="WIyWlLk6GJQsqaUBKTNV-1">
          <mxGeometry x="361" y="695" width="107" height="105" as="geometry" />
        </mxCell>
        <mxCell id="ls-VXuDLjJir9B-_iSUq-84" style="edgeStyle=orthogonalEdgeStyle;rounded=0;orthogonalLoop=1;jettySize=auto;html=1;exitX=0.5;exitY=1;exitDx=0;exitDy=0;" edge="1" parent="WIyWlLk6GJQsqaUBKTNV-1" source="ls-VXuDLjJir9B-_iSUq-78" target="ls-VXuDLjJir9B-_iSUq-85">
          <mxGeometry relative="1" as="geometry">
            <mxPoint x="414.5" y="960" as="targetPoint" />
          </mxGeometry>
        </mxCell>
        <mxCell id="ls-VXuDLjJir9B-_iSUq-78" value="Odoslanie packetu" style="rounded=0;whiteSpace=wrap;html=1;" vertex="1" parent="WIyWlLk6GJQsqaUBKTNV-1">
          <mxGeometry x="354.5" y="850" width="120" height="60" as="geometry" />
        </mxCell>
        <mxCell id="ls-VXuDLjJir9B-_iSUq-83" style="edgeStyle=orthogonalEdgeStyle;rounded=0;orthogonalLoop=1;jettySize=auto;html=1;exitX=0.5;exitY=1;exitDx=0;exitDy=0;entryX=1;entryY=0.5;entryDx=0;entryDy=0;" edge="1" parent="WIyWlLk6GJQsqaUBKTNV-1" source="ls-VXuDLjJir9B-_iSUq-82" target="ls-VXuDLjJir9B-_iSUq-78">
          <mxGeometry relative="1" as="geometry" />
        </mxCell>
        <mxCell id="ls-VXuDLjJir9B-_iSUq-82" value="Rozdelenie na fragmenty" style="rounded=0;whiteSpace=wrap;html=1;" vertex="1" parent="WIyWlLk6GJQsqaUBKTNV-1">
          <mxGeometry x="530" y="717.4966666666668" width="120" height="60" as="geometry" />
        </mxCell>
        <mxCell id="ls-VXuDLjJir9B-_iSUq-86" style="edgeStyle=orthogonalEdgeStyle;rounded=0;orthogonalLoop=1;jettySize=auto;html=1;exitX=1;exitY=0.5;exitDx=0;exitDy=0;" edge="1" parent="WIyWlLk6GJQsqaUBKTNV-1" source="ls-VXuDLjJir9B-_iSUq-85" target="ls-VXuDLjJir9B-_iSUq-87">
          <mxGeometry relative="1" as="geometry">
            <mxPoint x="510" y="1000.1666666666667" as="targetPoint" />
          </mxGeometry>
        </mxCell>
        <mxCell id="ls-VXuDLjJir9B-_iSUq-89" value="nie" style="edgeLabel;html=1;align=center;verticalAlign=middle;resizable=0;points=[];" vertex="1" connectable="0" parent="ls-VXuDLjJir9B-_iSUq-86">
          <mxGeometry x="-0.4463" y="2" relative="1" as="geometry">
            <mxPoint as="offset" />
          </mxGeometry>
        </mxCell>
        <mxCell id="ls-VXuDLjJir9B-_iSUq-90" style="edgeStyle=orthogonalEdgeStyle;rounded=0;orthogonalLoop=1;jettySize=auto;html=1;exitX=0.5;exitY=1;exitDx=0;exitDy=0;entryX=0.5;entryY=0;entryDx=0;entryDy=0;" edge="1" parent="WIyWlLk6GJQsqaUBKTNV-1" source="ls-VXuDLjJir9B-_iSUq-85" target="ls-VXuDLjJir9B-_iSUq-93">
          <mxGeometry relative="1" as="geometry">
            <mxPoint x="414.5" y="1079.9999999999998" as="targetPoint" />
          </mxGeometry>
        </mxCell>
        <mxCell id="ls-VXuDLjJir9B-_iSUq-92" value="áno" style="edgeLabel;html=1;align=center;verticalAlign=middle;resizable=0;points=[];" vertex="1" connectable="0" parent="ls-VXuDLjJir9B-_iSUq-90">
          <mxGeometry x="-0.2689" y="3" relative="1" as="geometry">
            <mxPoint as="offset" />
          </mxGeometry>
        </mxCell>
        <mxCell id="ls-VXuDLjJir9B-_iSUq-85" value="Ack?" style="rhombus;whiteSpace=wrap;html=1;" vertex="1" parent="WIyWlLk6GJQsqaUBKTNV-1">
          <mxGeometry x="374.5" y="960" width="80" height="80" as="geometry" />
        </mxCell>
        <mxCell id="ls-VXuDLjJir9B-_iSUq-88" style="edgeStyle=orthogonalEdgeStyle;rounded=0;orthogonalLoop=1;jettySize=auto;html=1;exitX=0.5;exitY=0;exitDx=0;exitDy=0;entryX=0.5;entryY=0;entryDx=0;entryDy=0;" edge="1" parent="WIyWlLk6GJQsqaUBKTNV-1" source="ls-VXuDLjJir9B-_iSUq-87" target="ls-VXuDLjJir9B-_iSUq-85">
          <mxGeometry relative="1" as="geometry" />
        </mxCell>
        <mxCell id="ls-VXuDLjJir9B-_iSUq-87" value="Opätovné poslanie&lt;br&gt;packetu" style="rounded=0;whiteSpace=wrap;html=1;" vertex="1" parent="WIyWlLk6GJQsqaUBKTNV-1">
          <mxGeometry x="500" y="969.9966666666668" width="120" height="60" as="geometry" />
        </mxCell>
        <mxCell id="ls-VXuDLjJir9B-_iSUq-94" style="edgeStyle=orthogonalEdgeStyle;rounded=0;orthogonalLoop=1;jettySize=auto;html=1;exitX=0;exitY=0.5;exitDx=0;exitDy=0;entryX=0;entryY=0.5;entryDx=0;entryDy=0;" edge="1" parent="WIyWlLk6GJQsqaUBKTNV-1" source="ls-VXuDLjJir9B-_iSUq-93" target="ls-VXuDLjJir9B-_iSUq-78">
          <mxGeometry relative="1" as="geometry" />
        </mxCell>
        <mxCell id="ls-VXuDLjJir9B-_iSUq-95" value="nie" style="edgeLabel;html=1;align=center;verticalAlign=middle;resizable=0;points=[];" vertex="1" connectable="0" parent="ls-VXuDLjJir9B-_iSUq-94">
          <mxGeometry x="-0.4161" y="1" relative="1" as="geometry">
            <mxPoint as="offset" />
          </mxGeometry>
        </mxCell>
        <mxCell id="ls-VXuDLjJir9B-_iSUq-98" style="edgeStyle=orthogonalEdgeStyle;rounded=0;orthogonalLoop=1;jettySize=auto;html=1;exitX=1;exitY=0.5;exitDx=0;exitDy=0;entryX=1;entryY=0.5;entryDx=0;entryDy=0;" edge="1" parent="WIyWlLk6GJQsqaUBKTNV-1" source="ls-VXuDLjJir9B-_iSUq-93" target="ls-VXuDLjJir9B-_iSUq-44">
          <mxGeometry relative="1" as="geometry">
            <Array as="points">
              <mxPoint x="680" y="1129" />
              <mxPoint x="680" y="345" />
            </Array>
          </mxGeometry>
        </mxCell>
        <mxCell id="ls-VXuDLjJir9B-_iSUq-99" value="áno" style="edgeLabel;html=1;align=center;verticalAlign=middle;resizable=0;points=[];" vertex="1" connectable="0" parent="ls-VXuDLjJir9B-_iSUq-98">
          <mxGeometry x="-0.7873" y="3" relative="1" as="geometry">
            <mxPoint as="offset" />
          </mxGeometry>
        </mxCell>
        <mxCell id="ls-VXuDLjJir9B-_iSUq-93" value="Posledný fragment?" style="rhombus;whiteSpace=wrap;html=1;" vertex="1" parent="WIyWlLk6GJQsqaUBKTNV-1">
          <mxGeometry x="374.5" y="1089" width="80" height="80" as="geometry" />
        </mxCell>
      </root>
    </mxGraphModel>
  </diagram>
</mxfile>
